<svg width="32" height="16" viewBox="0 0 32 16" fill="none" xmlns="http://www.w3.org/2000/svg">
<path d="M31.3536 4.35355C31.5488 4.15829 31.5488 3.84171 31.3536 3.64645L28.1716 0.464466C27.9763 0.269204 27.6597 0.269204 27.4645 0.464466C27.2692 0.659728 27.2692 0.976311 27.4645 1.17157L30.2929 4L27.4645 6.82843C27.2692 7.02369 27.2692 7.34027 27.4645 7.53553C27.6597 7.7308 27.9763 7.7308 28.1716 7.53553L31.3536 4.35355ZM1 4.5H31V3.5H1V4.5Z" fill="white"/>
<path d="M0.646444 11.6464C0.451183 11.8417 0.451183 12.1583 0.646444 12.3536L3.82842 15.5355C4.02369 15.7308 4.34027 15.7308 4.53553 15.5355C4.73079 15.3403 4.73079 15.0237 4.53553 14.8284L1.70711 12L4.53553 9.17157C4.73079 8.97631 4.73079 8.65973 4.53553 8.46447C4.34027 8.2692 4.02369 8.2692 3.82842 8.46447L0.646444 11.6464ZM31 11.5L0.999998 11.5V12.5L31 12.5V11.5Z" fill="white"/>
</svg>
